<mxfile host="Electron" agent="Mozilla/5.0 (Windows NT 10.0; Win64; x64) AppleWebKit/537.36 (KHTML, like Gecko) draw.io/24.7.17 Chrome/128.0.6613.36 Electron/32.0.1 Safari/537.36" version="24.7.17" pages="2">
  <diagram name="PlayerFlow" id="KfiiI6hug_dJHCvisBEr">
    <mxGraphModel dx="1434" dy="836" grid="1" gridSize="10" guides="1" tooltips="1" connect="1" arrows="1" fold="1" page="1" pageScale="1" pageWidth="827" pageHeight="1169" math="0" shadow="0">
      <root>
        <mxCell id="0" />
        <mxCell id="1" parent="0" />
        <mxCell id="OkqZPrxTYuuQNfQ_vpRB-2" style="edgeStyle=orthogonalEdgeStyle;rounded=0;orthogonalLoop=1;jettySize=auto;html=1;" parent="1" source="OkqZPrxTYuuQNfQ_vpRB-1" edge="1">
          <mxGeometry relative="1" as="geometry">
            <mxPoint x="180" y="250" as="targetPoint" />
          </mxGeometry>
        </mxCell>
        <mxCell id="OkqZPrxTYuuQNfQ_vpRB-1" value="Press Play" style="strokeWidth=2;html=1;shape=mxgraph.flowchart.start_1;whiteSpace=wrap;" parent="1" vertex="1">
          <mxGeometry x="130" y="130" width="100" height="60" as="geometry" />
        </mxCell>
        <mxCell id="PcqhGPTNvIB4JqDuQ9O_-2" value="&lt;h1 style=&quot;margin-top: 0px;&quot;&gt;Player Flow&lt;/h1&gt;&lt;p&gt;This diagram explains how the Sticky Camera plug-in systems and the Player interact with eachother.&lt;/p&gt;" style="text;html=1;whiteSpace=wrap;overflow=hidden;rounded=0;" parent="1" vertex="1">
          <mxGeometry width="180" height="120" as="geometry" />
        </mxCell>
        <mxCell id="fw25SQQR96AnKzTzWe1k-2" style="edgeStyle=orthogonalEdgeStyle;rounded=0;orthogonalLoop=1;jettySize=auto;html=1;exitX=0.5;exitY=1;exitDx=0;exitDy=0;exitPerimeter=0;" parent="1" source="fw25SQQR96AnKzTzWe1k-1" edge="1">
          <mxGeometry relative="1" as="geometry">
            <mxPoint x="180" y="490" as="targetPoint" />
          </mxGeometry>
        </mxCell>
        <mxCell id="fw25SQQR96AnKzTzWe1k-1" value="Get &quot;Start Camera&quot;" style="strokeWidth=2;html=1;shape=mxgraph.flowchart.stored_data;whiteSpace=wrap;" parent="1" vertex="1">
          <mxGeometry x="130" y="370" width="100" height="60" as="geometry" />
        </mxCell>
        <mxCell id="fw25SQQR96AnKzTzWe1k-3" value="" style="verticalLabelPosition=bottom;verticalAlign=top;html=1;shape=hexagon;perimeter=hexagonPerimeter2;arcSize=6;size=0.2;" parent="1" vertex="1">
          <mxGeometry x="130" y="250" width="100" height="60" as="geometry" />
        </mxCell>
        <mxCell id="fw25SQQR96AnKzTzWe1k-4" style="edgeStyle=orthogonalEdgeStyle;rounded=0;orthogonalLoop=1;jettySize=auto;html=1;entryX=0.5;entryY=0;entryDx=0;entryDy=0;entryPerimeter=0;" parent="1" source="fw25SQQR96AnKzTzWe1k-3" target="fw25SQQR96AnKzTzWe1k-1" edge="1">
          <mxGeometry relative="1" as="geometry" />
        </mxCell>
        <mxCell id="fw25SQQR96AnKzTzWe1k-6" style="edgeStyle=orthogonalEdgeStyle;rounded=0;orthogonalLoop=1;jettySize=auto;html=1;exitX=0.5;exitY=1;exitDx=0;exitDy=0;" parent="1" source="fw25SQQR96AnKzTzWe1k-5" edge="1">
          <mxGeometry relative="1" as="geometry">
            <mxPoint x="179.8571428571429" y="650" as="targetPoint" />
          </mxGeometry>
        </mxCell>
        <mxCell id="fw25SQQR96AnKzTzWe1k-5" value="Set Player Camera to Start Camera" style="rounded=1;whiteSpace=wrap;html=1;absoluteArcSize=1;arcSize=14;strokeWidth=2;" parent="1" vertex="1">
          <mxGeometry x="130" y="490" width="100" height="100" as="geometry" />
        </mxCell>
        <mxCell id="fw25SQQR96AnKzTzWe1k-7" value="Player walks into new StickyCam Volume" style="html=1;strokeWidth=2;shape=manualInput;whiteSpace=wrap;rounded=1;size=26;arcSize=11;" parent="1" vertex="1">
          <mxGeometry x="130" y="650" width="100" height="60" as="geometry" />
        </mxCell>
        <mxCell id="fw25SQQR96AnKzTzWe1k-9" value="" style="strokeWidth=2;html=1;shape=mxgraph.flowchart.annotation_2;align=left;labelPosition=right;pointerEvents=1;" parent="1" vertex="1">
          <mxGeometry x="80" y="280" width="50" height="120" as="geometry" />
        </mxCell>
        <mxCell id="fw25SQQR96AnKzTzWe1k-10" value="Loading...&lt;div&gt;(Before Player can see)&lt;/div&gt;" style="text;html=1;align=center;verticalAlign=middle;whiteSpace=wrap;rounded=0;" parent="1" vertex="1">
          <mxGeometry x="10" y="325" width="60" height="30" as="geometry" />
        </mxCell>
        <mxCell id="fw25SQQR96AnKzTzWe1k-18" style="edgeStyle=orthogonalEdgeStyle;rounded=0;orthogonalLoop=1;jettySize=auto;html=1;exitX=0;exitY=0.5;exitDx=0;exitDy=0;exitPerimeter=0;entryX=0.5;entryY=0;entryDx=0;entryDy=0;" parent="1" source="fw25SQQR96AnKzTzWe1k-14" target="fw25SQQR96AnKzTzWe1k-17" edge="1">
          <mxGeometry relative="1" as="geometry" />
        </mxCell>
        <mxCell id="fw25SQQR96AnKzTzWe1k-34" value="True" style="edgeLabel;html=1;align=center;verticalAlign=middle;resizable=0;points=[];" parent="fw25SQQR96AnKzTzWe1k-18" vertex="1" connectable="0">
          <mxGeometry x="-0.0141" relative="1" as="geometry">
            <mxPoint as="offset" />
          </mxGeometry>
        </mxCell>
        <mxCell id="fw25SQQR96AnKzTzWe1k-33" style="edgeStyle=orthogonalEdgeStyle;rounded=0;orthogonalLoop=1;jettySize=auto;html=1;exitX=1;exitY=0.5;exitDx=0;exitDy=0;exitPerimeter=0;" parent="1" source="fw25SQQR96AnKzTzWe1k-14" target="fw25SQQR96AnKzTzWe1k-32" edge="1">
          <mxGeometry relative="1" as="geometry" />
        </mxCell>
        <mxCell id="fw25SQQR96AnKzTzWe1k-35" value="False" style="edgeLabel;html=1;align=center;verticalAlign=middle;resizable=0;points=[];" parent="fw25SQQR96AnKzTzWe1k-33" vertex="1" connectable="0">
          <mxGeometry x="-0.0104" relative="1" as="geometry">
            <mxPoint as="offset" />
          </mxGeometry>
        </mxCell>
        <mxCell id="fw25SQQR96AnKzTzWe1k-14" value="New volume is ephemeral?" style="strokeWidth=2;html=1;shape=mxgraph.flowchart.decision;whiteSpace=wrap;" parent="1" vertex="1">
          <mxGeometry x="130" y="1010" width="100" height="100" as="geometry" />
        </mxCell>
        <mxCell id="fw25SQQR96AnKzTzWe1k-20" style="edgeStyle=orthogonalEdgeStyle;rounded=0;orthogonalLoop=1;jettySize=auto;html=1;exitX=0.5;exitY=1;exitDx=0;exitDy=0;entryX=0.5;entryY=0;entryDx=0;entryDy=0;" parent="1" source="fw25SQQR96AnKzTzWe1k-17" target="fw25SQQR96AnKzTzWe1k-19" edge="1">
          <mxGeometry relative="1" as="geometry" />
        </mxCell>
        <mxCell id="fw25SQQR96AnKzTzWe1k-17" value="Set Player Camera to CurCam" style="rounded=1;whiteSpace=wrap;html=1;absoluteArcSize=1;arcSize=14;strokeWidth=2;" parent="1" vertex="1">
          <mxGeometry x="10" y="1130" width="100" height="100" as="geometry" />
        </mxCell>
        <mxCell id="fw25SQQR96AnKzTzWe1k-19" value="Player walks out of the StickyCam Volume" style="html=1;strokeWidth=2;shape=manualInput;whiteSpace=wrap;rounded=1;size=26;arcSize=11;" parent="1" vertex="1">
          <mxGeometry x="10" y="1290" width="100" height="60" as="geometry" />
        </mxCell>
        <mxCell id="fw25SQQR96AnKzTzWe1k-21" value="Set PlayerCamera to CurCam" style="rounded=1;whiteSpace=wrap;html=1;absoluteArcSize=1;arcSize=14;strokeWidth=2;" parent="1" vertex="1">
          <mxGeometry x="10" y="1530" width="100" height="100" as="geometry" />
        </mxCell>
        <mxCell id="fw25SQQR96AnKzTzWe1k-24" value="Set CurCam Point to&lt;span style=&quot;background-color: initial;&quot;&gt;&amp;nbsp;PrevCam Point&lt;/span&gt;" style="strokeWidth=2;html=1;shape=mxgraph.flowchart.stored_data;whiteSpace=wrap;" parent="1" vertex="1">
          <mxGeometry x="130" y="770" width="100" height="60" as="geometry" />
        </mxCell>
        <mxCell id="fw25SQQR96AnKzTzWe1k-25" value="Set New StickyCamPoint as CurCamPoint" style="strokeWidth=2;html=1;shape=mxgraph.flowchart.stored_data;whiteSpace=wrap;" parent="1" vertex="1">
          <mxGeometry x="130" y="890" width="100" height="60" as="geometry" />
        </mxCell>
        <mxCell id="fw25SQQR96AnKzTzWe1k-26" style="edgeStyle=orthogonalEdgeStyle;rounded=0;orthogonalLoop=1;jettySize=auto;html=1;exitX=0.5;exitY=1;exitDx=0;exitDy=0;exitPerimeter=0;entryX=0.5;entryY=0;entryDx=0;entryDy=0;entryPerimeter=0;" parent="1" source="fw25SQQR96AnKzTzWe1k-24" target="fw25SQQR96AnKzTzWe1k-25" edge="1">
          <mxGeometry relative="1" as="geometry" />
        </mxCell>
        <mxCell id="fw25SQQR96AnKzTzWe1k-27" style="edgeStyle=orthogonalEdgeStyle;rounded=0;orthogonalLoop=1;jettySize=auto;html=1;exitX=0.5;exitY=1;exitDx=0;exitDy=0;exitPerimeter=0;entryX=0.5;entryY=0;entryDx=0;entryDy=0;entryPerimeter=0;" parent="1" source="fw25SQQR96AnKzTzWe1k-25" target="fw25SQQR96AnKzTzWe1k-14" edge="1">
          <mxGeometry relative="1" as="geometry" />
        </mxCell>
        <mxCell id="fw25SQQR96AnKzTzWe1k-28" style="edgeStyle=orthogonalEdgeStyle;rounded=0;orthogonalLoop=1;jettySize=auto;html=1;exitX=0.5;exitY=1;exitDx=0;exitDy=0;entryX=0.5;entryY=0;entryDx=0;entryDy=0;entryPerimeter=0;" parent="1" source="fw25SQQR96AnKzTzWe1k-7" target="fw25SQQR96AnKzTzWe1k-24" edge="1">
          <mxGeometry relative="1" as="geometry" />
        </mxCell>
        <mxCell id="fw25SQQR96AnKzTzWe1k-31" style="edgeStyle=orthogonalEdgeStyle;rounded=0;orthogonalLoop=1;jettySize=auto;html=1;exitX=0.5;exitY=1;exitDx=0;exitDy=0;exitPerimeter=0;entryX=0.5;entryY=0;entryDx=0;entryDy=0;" parent="1" source="fw25SQQR96AnKzTzWe1k-29" target="fw25SQQR96AnKzTzWe1k-21" edge="1">
          <mxGeometry relative="1" as="geometry" />
        </mxCell>
        <mxCell id="fw25SQQR96AnKzTzWe1k-29" value="Set CurCam Point to PrevCam Point" style="strokeWidth=2;html=1;shape=mxgraph.flowchart.stored_data;whiteSpace=wrap;" parent="1" vertex="1">
          <mxGeometry x="10" y="1410" width="100" height="60" as="geometry" />
        </mxCell>
        <mxCell id="fw25SQQR96AnKzTzWe1k-30" style="edgeStyle=orthogonalEdgeStyle;rounded=0;orthogonalLoop=1;jettySize=auto;html=1;exitX=0.5;exitY=1;exitDx=0;exitDy=0;entryX=0.5;entryY=0;entryDx=0;entryDy=0;entryPerimeter=0;" parent="1" source="fw25SQQR96AnKzTzWe1k-19" target="fw25SQQR96AnKzTzWe1k-29" edge="1">
          <mxGeometry relative="1" as="geometry" />
        </mxCell>
        <mxCell id="fw25SQQR96AnKzTzWe1k-37" style="edgeStyle=orthogonalEdgeStyle;rounded=0;orthogonalLoop=1;jettySize=auto;html=1;exitX=0.5;exitY=1;exitDx=0;exitDy=0;entryX=0.5;entryY=0;entryDx=0;entryDy=0;" parent="1" source="fw25SQQR96AnKzTzWe1k-32" target="fw25SQQR96AnKzTzWe1k-36" edge="1">
          <mxGeometry relative="1" as="geometry" />
        </mxCell>
        <mxCell id="fw25SQQR96AnKzTzWe1k-32" value="Set Player Camera to CurCam" style="rounded=1;whiteSpace=wrap;html=1;absoluteArcSize=1;arcSize=14;strokeWidth=2;" parent="1" vertex="1">
          <mxGeometry x="250" y="1130" width="100" height="100" as="geometry" />
        </mxCell>
        <mxCell id="fw25SQQR96AnKzTzWe1k-38" style="edgeStyle=orthogonalEdgeStyle;rounded=0;orthogonalLoop=1;jettySize=auto;html=1;exitX=0.5;exitY=1;exitDx=0;exitDy=0;" parent="1" source="fw25SQQR96AnKzTzWe1k-36" edge="1">
          <mxGeometry relative="1" as="geometry">
            <mxPoint x="299.8571428571429" y="1410" as="targetPoint" />
          </mxGeometry>
        </mxCell>
        <mxCell id="fw25SQQR96AnKzTzWe1k-36" value="Playe walks into a new StickyCam Volume" style="html=1;strokeWidth=2;shape=manualInput;whiteSpace=wrap;rounded=1;size=26;arcSize=11;" parent="1" vertex="1">
          <mxGeometry x="250" y="1290" width="100" height="60" as="geometry" />
        </mxCell>
        <mxCell id="fw25SQQR96AnKzTzWe1k-39" value="Set PrevCam Point to CurCamPoint" style="strokeWidth=2;html=1;shape=mxgraph.flowchart.stored_data;whiteSpace=wrap;" parent="1" vertex="1">
          <mxGeometry x="250" y="1410" width="100" height="60" as="geometry" />
        </mxCell>
        <mxCell id="fw25SQQR96AnKzTzWe1k-40" value="Set NewStickyCam Point as CurCam Point" style="strokeWidth=2;html=1;shape=mxgraph.flowchart.stored_data;whiteSpace=wrap;" parent="1" vertex="1">
          <mxGeometry x="250" y="1530" width="100" height="60" as="geometry" />
        </mxCell>
        <mxCell id="fw25SQQR96AnKzTzWe1k-41" style="edgeStyle=orthogonalEdgeStyle;rounded=0;orthogonalLoop=1;jettySize=auto;html=1;exitX=0.5;exitY=1;exitDx=0;exitDy=0;exitPerimeter=0;entryX=0.5;entryY=0;entryDx=0;entryDy=0;entryPerimeter=0;" parent="1" source="fw25SQQR96AnKzTzWe1k-39" target="fw25SQQR96AnKzTzWe1k-40" edge="1">
          <mxGeometry relative="1" as="geometry" />
        </mxCell>
      </root>
    </mxGraphModel>
  </diagram>
  <diagram id="_nSGeJxww4EGkI6XcU6L" name="DevFlow">
    <mxGraphModel dx="1195" dy="697" grid="1" gridSize="10" guides="1" tooltips="1" connect="1" arrows="1" fold="1" page="1" pageScale="1" pageWidth="827" pageHeight="1169" math="0" shadow="0">
      <root>
        <mxCell id="0" />
        <mxCell id="1" parent="0" />
        <mxCell id="wfonYW0FrywT2deyfy4u-1" value="&lt;h1 style=&quot;margin-top: 0px;&quot;&gt;Developer Flow&lt;/h1&gt;&lt;p&gt;This diagram explains how the Developer should use the Sticky Camera plug-in.&lt;/p&gt;" style="text;html=1;whiteSpace=wrap;overflow=hidden;rounded=0;" parent="1" vertex="1">
          <mxGeometry width="180" height="120" as="geometry" />
        </mxCell>
        <mxCell id="oAPi7P-R6uji0UyIFtB0-1" value="Dev attaches a StickyCam Actor Component to the Player Character" style="html=1;strokeWidth=2;shape=manualInput;whiteSpace=wrap;rounded=1;size=26;arcSize=11;" parent="1" vertex="1">
          <mxGeometry x="130" y="650" width="100" height="60" as="geometry" />
        </mxCell>
        <mxCell id="R84Puplf5jJKaO_KyfgD-9" style="edgeStyle=orthogonalEdgeStyle;rounded=0;orthogonalLoop=1;jettySize=auto;html=1;exitX=0.5;exitY=1;exitDx=0;exitDy=0;exitPerimeter=0;" edge="1" parent="1" source="wY98bBFcnD_aK3jU_fjX-2" target="R84Puplf5jJKaO_KyfgD-7">
          <mxGeometry relative="1" as="geometry" />
        </mxCell>
        <mxCell id="wY98bBFcnD_aK3jU_fjX-2" value="Dev installs StickyCam Plug-in" style="strokeWidth=2;html=1;shape=mxgraph.flowchart.start_1;whiteSpace=wrap;" vertex="1" parent="1">
          <mxGeometry x="130" y="130" width="100" height="60" as="geometry" />
        </mxCell>
        <mxCell id="R84Puplf5jJKaO_KyfgD-2" style="edgeStyle=orthogonalEdgeStyle;rounded=0;orthogonalLoop=1;jettySize=auto;html=1;exitX=0.5;exitY=1;exitDx=0;exitDy=0;entryX=0.5;entryY=0;entryDx=0;entryDy=0;" edge="1" parent="1" source="DR6AMwgCKkS4P4l48vye-1" target="R84Puplf5jJKaO_KyfgD-1">
          <mxGeometry relative="1" as="geometry" />
        </mxCell>
        <mxCell id="DR6AMwgCKkS4P4l48vye-1" value="" style="verticalLabelPosition=bottom;verticalAlign=top;html=1;shape=hexagon;perimeter=hexagonPerimeter2;arcSize=6;size=0.27;" vertex="1" parent="1">
          <mxGeometry x="130" y="410" width="100" height="60" as="geometry" />
        </mxCell>
        <mxCell id="R84Puplf5jJKaO_KyfgD-3" style="edgeStyle=orthogonalEdgeStyle;rounded=0;orthogonalLoop=1;jettySize=auto;html=1;exitX=0.5;exitY=1;exitDx=0;exitDy=0;entryX=0.5;entryY=0;entryDx=0;entryDy=0;" edge="1" parent="1" source="R84Puplf5jJKaO_KyfgD-1" target="oAPi7P-R6uji0UyIFtB0-1">
          <mxGeometry relative="1" as="geometry" />
        </mxCell>
        <mxCell id="R84Puplf5jJKaO_KyfgD-1" value="&lt;font style=&quot;font-size: 8px;&quot;&gt;Player Character must have a Camera Component and a Sprint Arm Component&lt;/font&gt;" style="html=1;strokeWidth=2;shape=manualInput;whiteSpace=wrap;rounded=1;size=26;arcSize=11;" vertex="1" parent="1">
          <mxGeometry x="130" y="530" width="100" height="60" as="geometry" />
        </mxCell>
        <mxCell id="R84Puplf5jJKaO_KyfgD-5" value="" style="strokeWidth=2;html=1;shape=mxgraph.flowchart.annotation_2;align=left;labelPosition=right;pointerEvents=1;" vertex="1" parent="1">
          <mxGeometry x="80" y="440" width="50" height="120" as="geometry" />
        </mxCell>
        <mxCell id="R84Puplf5jJKaO_KyfgD-6" value="Before interacting with the Plug-in" style="text;html=1;align=center;verticalAlign=middle;whiteSpace=wrap;rounded=0;" vertex="1" parent="1">
          <mxGeometry x="10" y="485" width="60" height="30" as="geometry" />
        </mxCell>
        <mxCell id="R84Puplf5jJKaO_KyfgD-8" style="edgeStyle=orthogonalEdgeStyle;rounded=0;orthogonalLoop=1;jettySize=auto;html=1;exitX=0.5;exitY=1;exitDx=0;exitDy=0;exitPerimeter=0;entryX=0.5;entryY=0;entryDx=0;entryDy=0;" edge="1" parent="1" source="R84Puplf5jJKaO_KyfgD-7" target="DR6AMwgCKkS4P4l48vye-1">
          <mxGeometry relative="1" as="geometry" />
        </mxCell>
        <mxCell id="R84Puplf5jJKaO_KyfgD-10" value="Yes" style="edgeLabel;html=1;align=center;verticalAlign=middle;resizable=0;points=[];" vertex="1" connectable="0" parent="R84Puplf5jJKaO_KyfgD-8">
          <mxGeometry x="-0.1067" relative="1" as="geometry">
            <mxPoint as="offset" />
          </mxGeometry>
        </mxCell>
        <mxCell id="R84Puplf5jJKaO_KyfgD-13" style="edgeStyle=orthogonalEdgeStyle;rounded=0;orthogonalLoop=1;jettySize=auto;html=1;exitX=1;exitY=0.5;exitDx=0;exitDy=0;exitPerimeter=0;entryX=0.5;entryY=0;entryDx=0;entryDy=0;" edge="1" parent="1" source="R84Puplf5jJKaO_KyfgD-7" target="R84Puplf5jJKaO_KyfgD-12">
          <mxGeometry relative="1" as="geometry">
            <Array as="points">
              <mxPoint x="380" y="300" />
            </Array>
          </mxGeometry>
        </mxCell>
        <mxCell id="R84Puplf5jJKaO_KyfgD-20" style="edgeStyle=orthogonalEdgeStyle;rounded=0;orthogonalLoop=1;jettySize=auto;html=1;entryX=0.5;entryY=0;entryDx=0;entryDy=0;" edge="1" parent="1" source="R84Puplf5jJKaO_KyfgD-7" target="R84Puplf5jJKaO_KyfgD-18">
          <mxGeometry relative="1" as="geometry" />
        </mxCell>
        <mxCell id="R84Puplf5jJKaO_KyfgD-22" value="No" style="edgeLabel;html=1;align=center;verticalAlign=middle;resizable=0;points=[];" vertex="1" connectable="0" parent="R84Puplf5jJKaO_KyfgD-20">
          <mxGeometry x="-0.9032" relative="1" as="geometry">
            <mxPoint as="offset" />
          </mxGeometry>
        </mxCell>
        <mxCell id="R84Puplf5jJKaO_KyfgD-7" value="Required?" style="strokeWidth=2;html=1;shape=mxgraph.flowchart.decision;whiteSpace=wrap;" vertex="1" parent="1">
          <mxGeometry x="130" y="250" width="100" height="100" as="geometry" />
        </mxCell>
        <mxCell id="R84Puplf5jJKaO_KyfgD-16" style="edgeStyle=orthogonalEdgeStyle;rounded=0;orthogonalLoop=1;jettySize=auto;html=1;exitX=0.5;exitY=1;exitDx=0;exitDy=0;entryX=0.5;entryY=0;entryDx=0;entryDy=0;" edge="1" parent="1" source="R84Puplf5jJKaO_KyfgD-12">
          <mxGeometry relative="1" as="geometry">
            <mxPoint x="380" y="490" as="targetPoint" />
          </mxGeometry>
        </mxCell>
        <mxCell id="R84Puplf5jJKaO_KyfgD-12" value="Add StickyCam Volume" style="html=1;strokeWidth=2;shape=manualInput;whiteSpace=wrap;rounded=1;size=26;arcSize=11;" vertex="1" parent="1">
          <mxGeometry x="330" y="370" width="100" height="60" as="geometry" />
        </mxCell>
        <mxCell id="R84Puplf5jJKaO_KyfgD-18" value="Add StickyCam Point" style="html=1;strokeWidth=2;shape=manualInput;whiteSpace=wrap;rounded=1;size=26;arcSize=11;" vertex="1" parent="1">
          <mxGeometry x="490" y="370" width="100" height="60" as="geometry" />
        </mxCell>
        <mxCell id="YwtqfuAKXhMnVSlhjapC-2" style="edgeStyle=orthogonalEdgeStyle;rounded=0;orthogonalLoop=1;jettySize=auto;html=1;exitX=0.5;exitY=1;exitDx=0;exitDy=0;exitPerimeter=0;entryX=0.5;entryY=0;entryDx=0;entryDy=0;" edge="1" parent="1" source="R84Puplf5jJKaO_KyfgD-23" target="YwtqfuAKXhMnVSlhjapC-1">
          <mxGeometry relative="1" as="geometry" />
        </mxCell>
        <mxCell id="YwtqfuAKXhMnVSlhjapC-3" value="Yes" style="edgeLabel;html=1;align=center;verticalAlign=middle;resizable=0;points=[];" vertex="1" connectable="0" parent="YwtqfuAKXhMnVSlhjapC-2">
          <mxGeometry x="-0.3867" relative="1" as="geometry">
            <mxPoint as="offset" />
          </mxGeometry>
        </mxCell>
        <mxCell id="YwtqfuAKXhMnVSlhjapC-4" style="edgeStyle=orthogonalEdgeStyle;rounded=0;orthogonalLoop=1;jettySize=auto;html=1;exitX=1;exitY=0.5;exitDx=0;exitDy=0;exitPerimeter=0;" edge="1" parent="1" source="R84Puplf5jJKaO_KyfgD-23">
          <mxGeometry relative="1" as="geometry">
            <mxPoint x="490" y="410" as="targetPoint" />
            <Array as="points">
              <mxPoint x="450" y="540" />
              <mxPoint x="450" y="410" />
              <mxPoint x="490" y="410" />
            </Array>
          </mxGeometry>
        </mxCell>
        <mxCell id="YwtqfuAKXhMnVSlhjapC-6" value="No" style="edgeLabel;html=1;align=center;verticalAlign=middle;resizable=0;points=[];" vertex="1" connectable="0" parent="YwtqfuAKXhMnVSlhjapC-4">
          <mxGeometry x="-0.8629" relative="1" as="geometry">
            <mxPoint as="offset" />
          </mxGeometry>
        </mxCell>
        <mxCell id="R84Puplf5jJKaO_KyfgD-23" value="Point to an already existing Point?" style="strokeWidth=2;html=1;shape=mxgraph.flowchart.decision;whiteSpace=wrap;" vertex="1" parent="1">
          <mxGeometry x="330" y="490" width="100" height="100" as="geometry" />
        </mxCell>
        <mxCell id="YwtqfuAKXhMnVSlhjapC-1" value="Add reference to intended StickyCam Point" style="html=1;strokeWidth=2;shape=manualInput;whiteSpace=wrap;rounded=1;size=26;arcSize=11;" vertex="1" parent="1">
          <mxGeometry x="330" y="650" width="100" height="60" as="geometry" />
        </mxCell>
        <mxCell id="YwtqfuAKXhMnVSlhjapC-10" style="edgeStyle=orthogonalEdgeStyle;rounded=0;orthogonalLoop=1;jettySize=auto;html=1;exitX=0.5;exitY=1;exitDx=0;exitDy=0;exitPerimeter=0;entryX=0.5;entryY=0;entryDx=0;entryDy=0;" edge="1" parent="1" source="YwtqfuAKXhMnVSlhjapC-7" target="YwtqfuAKXhMnVSlhjapC-9">
          <mxGeometry relative="1" as="geometry" />
        </mxCell>
        <mxCell id="YwtqfuAKXhMnVSlhjapC-14" value="Yes" style="edgeLabel;html=1;align=center;verticalAlign=middle;resizable=0;points=[];" vertex="1" connectable="0" parent="YwtqfuAKXhMnVSlhjapC-10">
          <mxGeometry x="-0.4556" y="1" relative="1" as="geometry">
            <mxPoint as="offset" />
          </mxGeometry>
        </mxCell>
        <mxCell id="YwtqfuAKXhMnVSlhjapC-12" style="edgeStyle=orthogonalEdgeStyle;rounded=0;orthogonalLoop=1;jettySize=auto;html=1;exitX=0;exitY=0.5;exitDx=0;exitDy=0;exitPerimeter=0;" edge="1" parent="1" source="YwtqfuAKXhMnVSlhjapC-7">
          <mxGeometry relative="1" as="geometry">
            <mxPoint x="430" y="390" as="targetPoint" />
            <Array as="points">
              <mxPoint x="470" y="540" />
              <mxPoint x="470" y="390" />
              <mxPoint x="430" y="390" />
            </Array>
          </mxGeometry>
        </mxCell>
        <mxCell id="YwtqfuAKXhMnVSlhjapC-13" value="No" style="edgeLabel;html=1;align=center;verticalAlign=middle;resizable=0;points=[];" vertex="1" connectable="0" parent="YwtqfuAKXhMnVSlhjapC-12">
          <mxGeometry x="-0.9015" relative="1" as="geometry">
            <mxPoint as="offset" />
          </mxGeometry>
        </mxCell>
        <mxCell id="YwtqfuAKXhMnVSlhjapC-7" value="Have a volume that wants to reference the new Point?" style="strokeWidth=2;html=1;shape=mxgraph.flowchart.decision;whiteSpace=wrap;" vertex="1" parent="1">
          <mxGeometry x="490" y="490" width="100" height="100" as="geometry" />
        </mxCell>
        <mxCell id="YwtqfuAKXhMnVSlhjapC-8" style="edgeStyle=orthogonalEdgeStyle;rounded=0;orthogonalLoop=1;jettySize=auto;html=1;exitX=0.5;exitY=1;exitDx=0;exitDy=0;entryX=0.5;entryY=0;entryDx=0;entryDy=0;entryPerimeter=0;" edge="1" parent="1" source="R84Puplf5jJKaO_KyfgD-18" target="YwtqfuAKXhMnVSlhjapC-7">
          <mxGeometry relative="1" as="geometry" />
        </mxCell>
        <mxCell id="YwtqfuAKXhMnVSlhjapC-9" value="Go to that Volume and reference the new Point" style="html=1;strokeWidth=2;shape=manualInput;whiteSpace=wrap;rounded=1;size=26;arcSize=11;" vertex="1" parent="1">
          <mxGeometry x="490" y="650" width="100" height="60" as="geometry" />
        </mxCell>
      </root>
    </mxGraphModel>
  </diagram>
</mxfile>
